# xmcd
#
# Track frame offsets: 
#        150
#        15060
#        35474
#        67313
#        87709
#        105016
#        124929
#        145017
#        158523
#        193417
#
# Disc length: 2902 seconds
#
# Revision: 0
# Processed by: cddbd v1.5.1PL0 Copyright (c) Steve Scherf et al.
# Submitted via: ExactAudioCopy v0.95b3
#
DISCID=7e0b540a
DTITLE=Various Artist - Chicago Blues
DYEAR=1900
DGENRE=Blues
TTITLE0=Bad Luck Blues
TTITLE1=Going to Chicago
TTITLE2=Bluse for J
TTITLE3=Richland's Woman Blues
TTITLE4=I Cried
TTITLE5=Times Ticking on By
TTITLE6=Tell me I'm the One
TTITLE7=Red Hot Mama
TTITLE8=West Side Shuffle
TTITLE9=Nine Below Zero
EXTD=
EXTT0=
EXTT1=
EXTT2=
EXTT3=
EXTT4=
EXTT5=
EXTT6=
EXTT7=
EXTT8=
EXTT9=
PLAYORDER=
